<svg xmlns="http://www.w3.org/2000/svg" version="1.1" xmlns:xlink="http://www.w3.org/1999/xlink" xmlns:svgjs="http://svgjs.dev/svgjs" width="100%" height="100%" viewBox="0 0 1000 600"><rect width="1000" height="600" x="0" y="0" fill="#f4a950"/><g><rect width="333.3333333333333" height="333.3333333333333" rx="13.333333333333334" ry="13.333333333333334" y="373.5937717223863" fill="#161b21" transform="matrix(0.355748788085936,0,0,0.3557487880859361,0,107.80300178705255)" x="351.3715515136719"/><path d="M481.7361166802106 569.7988126923278L495.8479203001309 581.602474519342Q485.5343246938538 596.736872604474 469.6402850059932 605.9986567608191Q453.77546230285293 615.2604409171645 432.0964596403667 615.2604409171645L432.0964596403667 615.2604409171645Q411.49848541253266 615.2604409171645 394.34811538169777 605.6772699288954Q377.19774535086293 596.0940989406267 367.32240451539076 579.0605968486732Q357.4178466951982 562.0270947567196 357.4178466951982 540.581827971996L357.4178466951982 540.581827971996Q357.4178466951982 518.493787523425 367.0886686376281 501.34341749259016Q376.7887075647783 484.19304746175527 392.9749170998422 474.72674441236774Q409.16112663490605 465.2604413629802 427.88921384063883 465.2604413629802L427.88921384063883 465.2604413629802Q443.05282891049114 465.2604413629802 454.71040581390355 470.7240175056823Q466.39719970203635 476.1875936483844 474.37343653068694 486.0921514685769L474.37343653068694 486.0921514685769L474.6071724084496 468.21135681973374L494.1533351863517 468.21135681973374L494.1533351863517 515.1046172958665L480.275267444194 516.3901646235611Q465.1408693590621 482.7321982257387 431.0446481904347 482.7321982257387L431.0446481904347 482.7321982257387Q417.37109934131934 482.7321982257387 405.71352243790693 489.7734915433387Q394.02672854977413 496.8147848609387 386.98543523217415 509.9624279850881Q379.9441419145741 523.1100711092374 379.9441419145741 540.3480920942334L379.9441419145741 540.3480920942334Q379.9441419145741 556.76803750706 386.8685672932928 569.711161738167Q393.8222096567318 582.654285969274 405.71352243790693 590.0169661187977Q417.5756182343617 597.3796462683213 432.0964596403667 597.3796462683213L432.0964596403667 597.3796462683213Q449.12996173232017 597.3796462683213 461.0212745134953 590.0169661187977Q472.9125872946704 582.654285969274 481.7361166802106 569.7988126923278L481.7361166802106 569.7988126923278ZM656.132298475872 595.0422874906947L678.658593695248 595.0422874906947L678.658593695248 612.5140443534533L609.8525946788661 612.5140443534533L609.8525946788661 595.0422874906947L633.430701348174 595.0422874906947L619.961671392101 561.3843210928724L557.7002769530736 561.3843210928724L544.4357658900431 595.0422874906947L569.6792406884098 595.0422874906947L569.6792406884098 612.5140443534533L501.311496442833 612.5140443534533L501.311496442833 595.0422874906947L523.8085746774887 595.0422874906947L570.7310521383417 485.4493778047296L549.0520494758555 485.4493778047296L549.0520494758555 468.21135681973374L630.2752669983782 468.21135681973374L630.2752669983782 485.4493778047296L608.8007832289342 485.4493778047296L656.132298475872 595.0422874906947ZM564.0111456526654 545.6071493438931L613.6508026925094 545.6071493438931L589.6636582371168 485.4493778047296L587.9690731233376 485.4493778047296L564.0111456526654 545.6071493438931Z " fill="#f4a950" transform="matrix(0.355748788085936,0,0,0.3557487880859361,0,107.80300178705255)"/><path d="M856.6840414206187 545.3437730991784L866.7465414206187 553.7604397658451Q859.392374753952 564.5521064325118 848.0590414206188 571.1562730991784Q836.7465414206188 577.7604397658451 821.2882080872854 577.7604397658451L821.2882080872854 577.7604397658451Q806.6007080872853 577.7604397658451 794.3715414206188 570.9271064325117Q782.142374753952 564.0937730991784 775.1007080872853 551.9479397658451Q768.0382080872853 539.8021064325118 768.0382080872853 524.5104397658451L768.0382080872853 524.5104397658451Q768.0382080872853 508.7604397658451 774.9340414206188 496.5312730991784Q781.8507080872853 484.3021064325117 793.392374753952 477.5521064325118Q804.9340414206188 470.8021064325118 818.2882080872853 470.8021064325118L818.2882080872853 470.8021064325118Q829.1007080872853 470.8021064325118 837.4132080872853 474.6979397658451Q845.7465414206188 478.59377309917846 851.4340414206188 485.6562730991784L851.4340414206188 485.6562730991784L851.6007080872854 472.9062730991784L865.5382080872854 472.9062730991784L865.5382080872854 506.3437730991784L855.642374753952 507.2604397658451Q844.8507080872854 483.2604397658451 820.5382080872854 483.2604397658451L820.5382080872854 483.2604397658451Q810.7882080872854 483.2604397658451 802.4757080872853 488.28127309917846Q794.142374753952 493.3021064325117 789.1215414206188 502.6771064325118Q784.1007080872853 512.0521064325118 784.1007080872853 524.3437730991784L784.1007080872853 524.3437730991784Q784.1007080872853 536.0521064325118 789.0382080872853 545.2812730991784Q793.9965414206188 554.5104397658451 802.4757080872853 559.7604397658451Q810.9340414206188 565.0104397658451 821.2882080872854 565.0104397658451L821.2882080872854 565.0104397658451Q833.4340414206188 565.0104397658451 841.9132080872854 559.7604397658451Q850.392374753952 554.5104397658451 856.6840414206187 545.3437730991784L856.6840414206187 545.3437730991784ZM917.4340414206187 577.9062730991784Q907.1007080872854 577.9062730991784 898.1007080872854 573.2604397658451Q889.1007080872854 568.5937730991784 883.767374753952 560.0521064325118Q878.4340414206187 551.5104397658451 878.4340414206187 540.5521064325118L878.4340414206187 540.5521064325118Q878.4340414206187 529.4479397658451 883.767374753952 520.9687730991784Q889.1007080872854 512.5104397658451 898.1007080872854 507.84377309917846Q907.1007080872854 503.1979397658451 917.4340414206187 503.1979397658451L917.4340414206187 503.1979397658451Q927.642374753952 503.1979397658451 936.5590414206187 507.84377309917846Q945.4965414206187 512.5104397658451 950.892374753952 521.0521064325118Q956.2882080872854 529.5937730991784 956.2882080872854 540.5521064325118L956.2882080872854 540.5521064325118Q956.2882080872854 551.5104397658451 951.0382080872854 560.0521064325118Q945.7882080872854 568.5937730991784 936.8715414206187 573.2604397658451Q927.9340414206187 577.9062730991784 917.4340414206187 577.9062730991784L917.4340414206187 577.9062730991784ZM917.4340414206187 566.0521064325118Q924.1840414206187 566.0521064325118 929.6007080872854 562.9062730991784Q934.9965414206187 559.7604397658451 938.0590414206187 553.9687730991784Q941.142374753952 548.1979397658451 941.142374753952 540.5521064325118L941.142374753952 540.5521064325118Q941.142374753952 532.9062730991784 938.0590414206187 527.1354397658451Q934.9965414206187 521.3437730991784 929.6007080872854 518.1979397658451Q924.1840414206187 515.0521064325118 917.4340414206187 515.0521064325118L917.4340414206187 515.0521064325118Q907.1007080872854 515.0521064325118 900.4132080872854 522.0312730991784Q893.7465414206187 529.0104397658451 893.7465414206187 540.5521064325118L893.7465414206187 540.5521064325118Q893.7465414206187 552.0937730991784 900.4132080872854 559.0729397658451Q907.1007080872854 566.0521064325118 917.4340414206187 566.0521064325118L917.4340414206187 566.0521064325118ZM1105.2465414206185 563.9479397658451L1119.1840414206185 563.9479397658451L1119.1840414206185 575.8021064325117L1077.7882080872855 575.8021064325117L1077.7882080872855 563.9479397658451L1090.5382080872855 563.9479397658451L1090.5382080872855 533.8021064325118Q1090.5382080872855 526.0104397658451 1087.1007080872855 521.5104397658451Q1083.642374753952 517.0104397658451 1076.7465414206185 517.0104397658451L1076.7465414206185 517.0104397658451Q1070.6007080872855 517.0104397658451 1064.142374753952 521.0521064325118Q1057.6840414206185 525.0937730991784 1051.5382080872855 532.5937730991784L1051.5382080872855 532.5937730991784L1051.5382080872855 533.3437730991784L1051.5382080872855 563.9479397658451L1064.4340414206185 563.9479397658451L1064.4340414206185 575.8021064325117L1023.9340414206187 575.8021064325117L1023.9340414206187 563.9479397658451L1036.8507080872855 563.9479397658451L1036.8507080872855 533.8021064325118Q1036.8507080872855 526.0104397658451 1033.2465414206185 521.5104397658451Q1029.642374753952 517.0104397658451 1022.7465414206187 517.0104397658451L1022.7465414206187 517.0104397658451Q1016.6007080872854 517.0104397658451 1010.142374753952 521.1354397658451Q1003.6840414206187 525.2604397658451 997.392374753952 532.9062730991784L997.392374753952 532.9062730991784L997.392374753952 563.9479397658451L1010.4340414206187 563.9479397658451L1010.4340414206187 575.8021064325117L966.7882080872854 575.8021064325117L966.7882080872854 563.9479397658451L982.6840414206187 563.9479397658451L982.6840414206187 517.0104397658451L966.7882080872854 517.0104397658451L966.7882080872854 505.15627309917846L997.392374753952 505.15627309917846L997.392374753952 520.5937730991784Q1003.9965414206187 512.3437730991784 1011.7882080872854 507.84377309917846Q1019.6007080872854 503.3437730991784 1027.9965414206185 503.3437730991784L1027.9965414206185 503.3437730991784Q1036.5382080872855 503.3437730991784 1042.3090414206185 508.0729397658451Q1048.1007080872855 512.8021064325118 1050.3507080872855 521.9479397658451L1050.3507080872855 521.9479397658451Q1057.1007080872855 513.0937730991784 1065.1215414206188 508.21877309917846Q1073.142374753952 503.3437730991784 1081.8507080872855 503.3437730991784L1081.8507080872855 503.3437730991784Q1092.7882080872855 503.3437730991784 1099.017374753952 511.0729397658451Q1105.2465414206185 518.8021064325118 1105.2465414206185 533.3437730991784L1105.2465414206185 533.3437730991784L1105.2465414206185 563.9479397658451ZM1213.1007080872855 563.8021064325118L1216.392374753952 574.4479397658451Q1211.2882080872855 577.3021064325117 1205.142374753952 577.3021064325117L1205.142374753952 577.3021064325117Q1198.1007080872855 577.3021064325117 1193.7465414206185 573.0937730991784Q1189.392374753952 568.9062730991784 1188.7882080872855 561.0937730991784L1188.7882080872855 561.0937730991784Q1181.2882080872855 569.3437730991784 1174.1007080872855 573.5521064325117Q1166.892374753952 577.7604397658451 1158.9340414206185 577.7604397658451L1158.9340414206185 577.7604397658451Q1147.2465414206185 577.7604397658451 1140.8715414206185 569.9479397658451Q1134.4965414206185 562.1562730991784 1134.4965414206185 547.0104397658451L1134.4965414206185 547.0104397658451L1134.4965414206185 517.0104397658451L1120.392374753952 517.0104397658451L1120.392374753952 505.15627309917846L1149.1840414206185 505.15627309917846L1149.1840414206185 546.5521064325118Q1149.1840414206185 554.9479397658451 1152.7257080872855 559.5312730991784Q1156.2465414206185 564.0937730991784 1164.0382080872855 564.0937730991784L1164.0382080872855 564.0937730991784Q1175.6007080872855 564.0937730991784 1188.642374753952 549.5521064325118L1188.642374753952 549.5521064325118L1188.642374753952 517.0104397658451L1175.7465414206185 517.0104397658451L1175.7465414206185 505.15627309917846L1203.3507080872855 505.15627309917846L1203.3507080872855 557.6562730991784Q1203.3507080872855 565.0104397658451 1208.4340414206185 565.0104397658451L1208.4340414206185 565.0104397658451Q1211.4340414206185 565.0104397658451 1213.1007080872855 563.8021064325118L1213.1007080872855 563.8021064325118ZM1312.5382080872855 563.9479397658451L1326.642374753952 563.9479397658451L1326.642374753952 575.8021064325117L1284.9340414206185 575.8021064325117L1284.9340414206185 563.9479397658451L1297.9965414206185 563.9479397658451L1297.9965414206185 534.6979397658451Q1297.9965414206185 526.4479397658451 1293.8715414206185 521.7187730991784Q1289.7465414206185 517.0104397658451 1282.1007080872855 517.0104397658451L1282.1007080872855 517.0104397658451Q1269.0382080872855 517.0104397658451 1254.4965414206185 533.5104397658451L1254.4965414206185 533.5104397658451L1254.4965414206185 563.9479397658451L1267.5382080872855 563.9479397658451L1267.5382080872855 575.8021064325117L1223.892374753952 575.8021064325117L1223.892374753952 563.9479397658451L1239.7882080872855 563.9479397658451L1239.7882080872855 517.0104397658451L1223.892374753952 517.0104397658451L1223.892374753952 505.15627309917846L1254.4965414206185 505.15627309917846L1254.4965414206185 521.8021064325117Q1262.892374753952 512.5104397658451 1270.6215414206185 507.9271064325118Q1278.3507080872855 503.3437730991784 1287.1840414206188 503.3437730991784L1287.1840414206188 503.3437730991784Q1299.3507080872855 503.3437730991784 1305.9340414206188 511.1562730991784Q1312.5382080872855 518.9479397658451 1312.5382080872855 534.2604397658451L1312.5382080872855 534.2604397658451L1312.5382080872855 563.9479397658451ZM1354.6840414206185 489.09377309917846Q1349.892374753952 489.09377309917846 1346.6007080872855 486.5521064325117Q1343.2882080872855 484.0104397658451 1343.2882080872855 480.09377309917846L1343.2882080872855 480.09377309917846Q1343.2882080872855 476.0521064325117 1346.6007080872855 473.4271064325117Q1349.892374753952 470.8021064325118 1354.6840414206185 470.8021064325118L1354.6840414206185 470.8021064325118Q1359.7882080872855 470.8021064325118 1363.1007080872855 473.4271064325117Q1366.392374753952 476.0521064325117 1366.392374753952 480.09377309917846L1366.392374753952 480.09377309917846Q1366.392374753952 484.0104397658451 1363.1007080872855 486.5521064325117Q1359.7882080872855 489.09377309917846 1354.6840414206185 489.09377309917846L1354.6840414206185 489.09377309917846ZM1363.6840414206185 563.9479397658451L1379.746541420619 563.9479397658451L1379.746541420619 575.8021064325117L1333.1007080872855 575.8021064325117L1333.1007080872855 563.9479397658451L1348.9965414206185 563.9479397658451L1348.9965414206185 517.0104397658451L1333.1007080872855 517.0104397658451L1333.1007080872855 505.15627309917846L1363.6840414206185 505.15627309917846L1363.6840414206185 563.9479397658451ZM1472.4340414206185 563.6562730991784L1475.6007080872855 574.4479397658451Q1473.4965414206185 575.6562730991784 1470.4965414206185 576.4687730991784Q1467.4965414206185 577.3021064325117 1464.1840414206185 577.3021064325117L1464.1840414206185 577.3021064325117Q1458.642374753952 577.3021064325117 1454.6007080872855 574.3854397658451Q1450.5382080872855 571.4479397658451 1449.0382080872855 565.9062730991784L1449.0382080872855 565.9062730991784Q1443.0382080872855 571.3021064325117 1436.371541420619 574.5937730991784Q1429.6840414206185 577.9062730991784 1421.6007080872855 577.9062730991784L1421.6007080872855 577.9062730991784Q1412.434041420619 577.9062730991784 1404.5590414206185 573.2604397658451Q1396.684041420619 568.5937730991784 1392.0382080872855 560.2812730991784Q1387.392374753952 551.9479397658451 1387.392374753952 541.4479397658451L1387.392374753952 541.4479397658451Q1387.392374753952 530.5104397658451 1392.267374753952 521.7187730991784Q1397.142374753952 512.9479397658451 1405.5382080872855 508.0729397658451Q1413.9340414206185 503.1979397658451 1424.142374753952 503.1979397658451L1424.142374753952 503.1979397658451Q1437.1840414206185 503.1979397658451 1448.142374753952 512.8021064325118L1448.142374753952 512.8021064325118L1448.142374753952 484.7604397658451L1432.2465414206185 484.7604397658451L1432.2465414206185 472.9062730991784L1462.5382080872855 472.9062730991784L1462.5382080872855 557.6562730991784Q1462.5382080872855 564.8437730991784 1467.4965414206185 564.8437730991784L1467.4965414206185 564.8437730991784Q1470.7882080872855 564.8437730991784 1472.4340414206185 563.6562730991784L1472.4340414206185 563.6562730991784ZM1402.684041420619 541.3021064325118Q1402.684041420619 552.0937730991784 1408.767374753952 558.6979397658451Q1414.8507080872855 565.3021064325118 1424.6007080872855 565.3021064325118L1424.6007080872855 565.3021064325118Q1435.8507080872855 565.3021064325118 1448.142374753952 555.0937730991784L1448.142374753952 555.0937730991784L1448.142374753952 524.0521064325118Q1437.642374753952 515.6562730991784 1427.4340414206185 515.6562730991784L1427.4340414206185 515.6562730991784Q1420.392374753952 515.6562730991784 1414.6840414206185 518.9479397658451Q1408.9965414206185 522.2604397658451 1405.8507080872855 528.0937730991784Q1402.684041420619 533.9479397658451 1402.684041420619 541.3021064325118L1402.684041420619 541.3021064325118ZM1563.3507080872855 563.3437730991784L1566.3507080872855 574.0104397658451Q1561.392374753952 577.0104397658451 1554.7882080872855 577.0104397658451L1554.7882080872855 577.0104397658451Q1549.2465414206185 577.0104397658451 1545.4132080872855 573.7812730991784Q1541.6007080872855 570.5521064325117 1540.1007080872855 564.5521064325118L1540.1007080872855 564.5521064325118Q1525.1007080872855 577.9062730991784 1510.392374753952 577.9062730991784L1510.392374753952 577.9062730991784Q1500.0382080872855 577.9062730991784 1492.8507080872855 572.0521064325117Q1485.642374753952 566.1979397658451 1485.642374753952 555.6979397658451L1485.642374753952 555.6979397658451Q1485.642374753952 548.5104397658451 1489.6840414206185 543.1771064325118Q1493.7465414206185 537.8437730991784 1500.5590414206185 535.0729397658451Q1507.392374753952 532.3021064325118 1515.3507080872855 532.3021064325118L1515.3507080872855 532.3021064325118Q1522.1007080872855 532.3021064325118 1527.7882080872855 533.5729397658451Q1533.4965414206185 534.8437730991784 1539.496541420619 537.2604397658451L1539.496541420619 537.2604397658451L1539.496541420619 530.6562730991784Q1539.496541420619 523.0104397658451 1534.392374753952 519.4062730991784Q1529.2882080872855 515.8021064325118 1521.0382080872855 515.8021064325118L1521.0382080872855 515.8021064325118Q1509.3507080872855 515.8021064325118 1492.8507080872855 522.2604397658451L1492.8507080872855 522.2604397658451L1489.8507080872855 510.8437730991784Q1507.5382080872855 503.3437730991784 1522.8507080872855 503.3437730991784L1522.8507080872855 503.3437730991784Q1537.392374753952 503.3437730991784 1545.4132080872855 510.4687730991784Q1553.434041420619 517.5937730991784 1553.434041420619 531.2604397658451L1553.434041420619 531.2604397658451L1553.434041420619 557.1979397658451Q1553.434041420619 564.5521064325118 1558.6840414206185 564.5521064325118L1558.6840414206185 564.5521064325118Q1560.9340414206185 564.5521064325118 1563.3507080872855 563.3437730991784L1563.3507080872855 563.3437730991784ZM1500.1840414206185 554.9479397658451Q1500.1840414206185 560.0521064325118 1504.2465414206185 562.8229397658451Q1508.2882080872855 565.5937730991784 1514.142374753952 565.5937730991784L1514.142374753952 565.5937730991784Q1519.2465414206185 565.5937730991784 1525.8507080872855 562.9062730991784Q1532.4340414206185 560.1979397658451 1539.496541420619 554.9479397658451L1539.496541420619 554.9479397658451L1539.496541420619 547.0104397658451Q1529.2882080872855 543.4062730991784 1517.892374753952 543.0937730991784L1517.892374753952 543.0937730991784Q1510.5382080872855 543.0937730991784 1505.3715414206185 546.1771064325118Q1500.1840414206185 549.2604397658451 1500.1840414206185 554.9479397658451L1500.1840414206185 554.9479397658451ZM1658.892374753952 563.6562730991784L1662.0382080872855 574.4479397658451Q1659.9340414206185 575.6562730991784 1656.9340414206185 576.4687730991784Q1653.9340414206185 577.3021064325117 1650.642374753952 577.3021064325117L1650.642374753952 577.3021064325117Q1645.1007080872855 577.3021064325117 1641.0382080872855 574.3854397658451Q1636.9965414206185 571.4479397658451 1635.4965414206185 565.9062730991784L1635.4965414206185 565.9062730991784Q1629.4965414206185 571.3021064325117 1622.8090414206185 574.5937730991784Q1616.142374753952 577.9062730991784 1608.0382080872855 577.9062730991784L1608.0382080872855 577.9062730991784Q1598.892374753952 577.9062730991784 1591.017374753952 573.2604397658451Q1583.142374753952 568.5937730991784 1578.4965414206185 560.2812730991784Q1573.8507080872855 551.9479397658451 1573.8507080872855 541.4479397658451L1573.8507080872855 541.4479397658451Q1573.8507080872855 530.5104397658451 1578.7257080872855 521.7187730991784Q1583.6007080872855 512.9479397658451 1591.9965414206185 508.0729397658451Q1600.392374753952 503.1979397658451 1610.6007080872855 503.1979397658451L1610.6007080872855 503.1979397658451Q1623.642374753952 503.1979397658451 1634.6007080872855 512.8021064325118L1634.6007080872855 512.8021064325118L1634.6007080872855 484.7604397658451L1618.6840414206185 484.7604397658451L1618.6840414206185 472.9062730991784L1648.9965414206185 472.9062730991784L1648.9965414206185 557.6562730991784Q1648.9965414206185 564.8437730991784 1653.9340414206185 564.8437730991784L1653.9340414206185 564.8437730991784Q1657.2465414206185 564.8437730991784 1658.892374753952 563.6562730991784L1658.892374753952 563.6562730991784ZM1589.142374753952 541.3021064325118Q1589.142374753952 552.0937730991784 1595.2257080872855 558.6979397658451Q1601.2882080872855 565.3021064325118 1611.0382080872855 565.3021064325118L1611.0382080872855 565.3021064325118Q1622.2882080872855 565.3021064325118 1634.6007080872855 555.0937730991784L1634.6007080872855 555.0937730991784L1634.6007080872855 524.0521064325118Q1624.1007080872855 515.6562730991784 1613.892374753952 515.6562730991784L1613.892374753952 515.6562730991784Q1606.8507080872855 515.6562730991784 1601.142374753952 518.9479397658451Q1595.4340414206185 522.2604397658451 1592.2882080872855 528.0937730991784Q1589.142374753952 533.9479397658451 1589.142374753952 541.3021064325118L1589.142374753952 541.3021064325118ZM1736.6007080872855 555.6979397658451L1742.892374753952 565.3021064325118Q1728.4965414206185 577.9062730991784 1710.0382080872855 577.9062730991784L1710.0382080872855 577.9062730991784Q1699.9965414206185 577.9062730991784 1690.9965414206185 573.6979397658451Q1681.9965414206185 569.5104397658451 1676.4340414206185 561.4062730991784Q1670.892374753952 553.3021064325118 1670.892374753952 542.1979397658451L1670.892374753952 542.1979397658451Q1670.892374753952 530.3437730991784 1676.6007080872855 521.5104397658451Q1682.2882080872855 512.6562730991784 1691.4340414206185 507.9271064325118Q1700.6007080872855 503.1979397658451 1710.642374753952 503.1979397658451L1710.642374753952 503.1979397658451Q1719.4965414206185 503.1979397658451 1726.4757080872855 506.0521064325118Q1733.4340414206185 508.9062730991784 1737.4132080872855 514.0104397658451Q1741.392374753952 519.0937730991784 1741.392374753952 525.6979397658451L1741.392374753952 525.6979397658451Q1741.392374753952 535.5937730991784 1732.9132080872855 541.0729397658451Q1724.4340414206185 546.5521064325118 1712.6007080872855 546.5521064325118L1712.6007080872855 546.5521064325118Q1704.9340414206185 546.5521064325118 1698.3507080872855 544.9687730991784Q1691.7465414206185 543.4062730991784 1684.9965414206185 540.4062730991784L1684.9965414206185 540.4062730991784L1684.9965414206185 541.7604397658451Q1684.9965414206185 548.8021064325118 1688.3715414206185 554.1979397658451Q1691.7465414206185 559.5937730991784 1697.4340414206185 562.4479397658451Q1703.142374753952 565.3021064325118 1709.892374753952 565.3021064325118L1709.892374753952 565.3021064325118Q1725.184041420619 565.3021064325118 1736.6007080872855 555.6979397658451L1736.6007080872855 555.6979397658451ZM1711.6840414206185 514.9062730991784Q1703.6007080872855 514.9062730991784 1696.6215414206185 519.5521064325118Q1689.642374753952 524.1979397658451 1686.642374753952 532.1562730991784L1686.642374753952 532.1562730991784Q1698.0382080872855 536.1979397658451 1709.434041420619 536.1979397658451L1709.434041420619 536.1979397658451Q1716.9340414206185 536.1979397658451 1721.8090414206185 533.4271064325117Q1726.6840414206185 530.6562730991784 1726.6840414206185 525.6979397658451L1726.6840414206185 525.6979397658451Q1726.6840414206185 520.9062730991784 1722.4965414206185 517.9062730991784Q1718.2882080872855 514.9062730991784 1711.6840414206185 514.9062730991784L1711.6840414206185 514.9062730991784ZM1864.6840414206185 555.6979397658451L1870.996541420619 565.3021064325118Q1856.6007080872855 577.9062730991784 1838.142374753952 577.9062730991784L1838.142374753952 577.9062730991784Q1828.1007080872855 577.9062730991784 1819.1007080872855 573.6979397658451Q1810.1007080872855 569.5104397658451 1804.5382080872855 561.4062730991784Q1798.996541420619 553.3021064325118 1798.996541420619 542.1979397658451L1798.996541420619 542.1979397658451Q1798.996541420619 530.3437730991784 1804.684041420619 521.5104397658451Q1810.392374753952 512.6562730991784 1819.5382080872855 507.9271064325118Q1828.684041420619 503.1979397658451 1838.746541420619 503.1979397658451L1838.746541420619 503.1979397658451Q1847.6007080872855 503.1979397658451 1854.559041420619 506.0521064325118Q1861.5382080872855 508.9062730991784 1865.517374753952 514.0104397658451Q1869.496541420619 519.0937730991784 1869.496541420619 525.6979397658451L1869.496541420619 525.6979397658451Q1869.496541420619 535.5937730991784 1861.017374753952 541.0729397658451Q1852.5382080872855 546.5521064325118 1840.684041420619 546.5521064325118L1840.684041420619 546.5521064325118Q1833.0382080872855 546.5521064325118 1826.434041420619 544.9687730991784Q1819.8507080872855 543.4062730991784 1813.1007080872855 540.4062730991784L1813.1007080872855 540.4062730991784L1813.1007080872855 541.7604397658451Q1813.1007080872855 548.8021064325118 1816.4757080872855 554.1979397658451Q1819.8507080872855 559.5937730991784 1825.5382080872855 562.4479397658451Q1831.246541420619 565.3021064325118 1837.996541420619 565.3021064325118L1837.996541420619 565.3021064325118Q1853.2882080872855 565.3021064325118 1864.6840414206185 555.6979397658451L1864.6840414206185 555.6979397658451ZM1839.7882080872855 514.9062730991784Q1831.684041420619 514.9062730991784 1824.7257080872855 519.5521064325118Q1817.746541420619 524.1979397658451 1814.746541420619 532.1562730991784L1814.746541420619 532.1562730991784Q1826.142374753952 536.1979397658451 1837.5382080872855 536.1979397658451L1837.5382080872855 536.1979397658451Q1845.0382080872855 536.1979397658451 1849.9132080872855 533.4271064325117Q1854.7882080872855 530.6562730991784 1854.7882080872855 525.6979397658451L1854.7882080872855 525.6979397658451Q1854.7882080872855 520.9062730991784 1850.6007080872855 517.9062730991784Q1846.392374753952 514.9062730991784 1839.7882080872855 514.9062730991784L1839.7882080872855 514.9062730991784ZM2019.496541420619 563.9479397658451L2033.434041420619 563.9479397658451L2033.434041420619 575.8021064325117L1992.0382080872855 575.8021064325117L1992.0382080872855 563.9479397658451L2004.7882080872855 563.9479397658451L2004.7882080872855 533.8021064325118Q2004.7882080872855 526.0104397658451 2001.3507080872855 521.5104397658451Q1997.892374753952 517.0104397658451 1990.996541420619 517.0104397658451L1990.996541420619 517.0104397658451Q1984.8507080872855 517.0104397658451 1978.392374753952 521.0521064325118Q1971.934041420619 525.0937730991784 1965.7882080872855 532.5937730991784L1965.7882080872855 532.5937730991784L1965.7882080872855 533.3437730991784L1965.7882080872855 563.9479397658451L1978.684041420619 563.9479397658451L1978.684041420619 575.8021064325117L1938.184041420619 575.8021064325117L1938.184041420619 563.9479397658451L1951.1007080872855 563.9479397658451L1951.1007080872855 533.8021064325118Q1951.1007080872855 526.0104397658451 1947.4965414206185 521.5104397658451Q1943.892374753952 517.0104397658451 1936.996541420619 517.0104397658451L1936.996541420619 517.0104397658451Q1930.8507080872855 517.0104397658451 1924.392374753952 521.1354397658451Q1917.934041420619 525.2604397658451 1911.642374753952 532.9062730991784L1911.642374753952 532.9062730991784L1911.642374753952 563.9479397658451L1924.684041420619 563.9479397658451L1924.684041420619 575.8021064325117L1881.0382080872855 575.8021064325117L1881.0382080872855 563.9479397658451L1896.934041420619 563.9479397658451L1896.934041420619 517.0104397658451L1881.0382080872855 517.0104397658451L1881.0382080872855 505.15627309917846L1911.642374753952 505.15627309917846L1911.642374753952 520.5937730991784Q1918.246541420619 512.3437730991784 1926.0382080872855 507.84377309917846Q1933.8507080872855 503.3437730991784 1942.246541420619 503.3437730991784L1942.246541420619 503.3437730991784Q1950.7882080872855 503.3437730991784 1956.559041420619 508.0729397658451Q1962.3507080872855 512.8021064325118 1964.6007080872855 521.9479397658451L1964.6007080872855 521.9479397658451Q1971.3507080872855 513.0937730991784 1979.371541420619 508.21877309917846Q1987.392374753952 503.3437730991784 1996.1007080872855 503.3437730991784L1996.1007080872855 503.3437730991784Q2007.0382080872855 503.3437730991784 2013.267374753952 511.0729397658451Q2019.496541420619 518.8021064325118 2019.496541420619 533.3437730991784L2019.496541420619 533.3437730991784L2019.496541420619 563.9479397658451ZM2190.7882080872855 563.3437730991784L2206.8507080872855 563.3437730991784L2206.8507080872855 575.8021064325117L2157.7882080872855 575.8021064325117L2157.7882080872855 563.3437730991784L2174.6007080872855 563.3437730991784L2164.996541420619 539.3437730991784L2120.6007080872855 539.3437730991784L2111.142374753952 563.3437730991784L2129.142374753952 563.3437730991784L2129.142374753952 575.8021064325117L2080.392374753952 575.8021064325117L2080.392374753952 563.3437730991784L2096.4340414206185 563.3437730991784L2129.892374753952 485.1979397658451L2114.434041420619 485.1979397658451L2114.434041420619 472.9062730991784L2172.3507080872855 472.9062730991784L2172.3507080872855 485.1979397658451L2157.0382080872855 485.1979397658451L2190.7882080872855 563.3437730991784ZM2125.1007080872855 528.0937730991784L2160.4965414206185 528.0937730991784L2143.3923747539525 485.1979397658451L2142.184041420619 485.1979397658451L2125.1007080872855 528.0937730991784ZM2249.434041420619 586.9062730991784Q2256.3507080872855 586.9062730991784 2260.621541420619 590.5729397658451Q2264.892374753952 594.2604397658451 2264.892374753952 600.2604397658451L2264.892374753952 600.2604397658451Q2264.892374753952 607.0104397658451 2259.0382080872855 611.1354397658451Q2253.1840414206185 615.2604397658451 2245.1007080872855 615.2604397658451L2245.1007080872855 615.2604397658451Q2234.2882080872855 615.2604397658451 2223.642374753952 607.9062730991784L2223.642374753952 607.9062730991784L2227.996541420619 600.5521064325117Q2236.5382080872855 606.8437730991784 2245.1007080872855 606.8437730991784L2245.1007080872855 606.8437730991784Q2249.6007080872855 606.8437730991784 2252.2882080872855 605.0521064325117Q2254.9965414206185 603.2604397658451 2254.9965414206185 600.2604397658451L2254.9965414206185 600.2604397658451Q2254.9965414206185 596.9479397658451 2252.4340414206185 595.2187730991784Q2249.8923747539525 593.5104397658451 2245.392374753952 593.5104397658451L2245.392374753952 593.5104397658451Q2241.7882080872855 593.5104397658451 2236.684041420619 594.0937730991784L2236.684041420619 594.0937730991784L2235.7882080872855 592.7604397658451L2242.1007080872855 577.3021064325117Q2233.5382080872855 575.8021064325117 2226.559041420619 570.8437730991784Q2219.6007080872855 565.9062730991784 2215.4757080872855 558.0937730991784Q2211.3507080872855 550.3021064325118 2211.3507080872855 540.6979397658451L2211.3507080872855 540.6979397658451Q2211.3507080872855 530.3437730991784 2216.142374753952 521.7187730991784Q2220.9340414206185 513.0937730991784 2229.0382080872855 508.1562730991784Q2237.1423747539525 503.1979397658451 2246.6007080872855 503.1979397658451L2246.6007080872855 503.1979397658451Q2261.6007080872855 503.1979397658451 2269.996541420619 513.8437730991784L2269.996541420619 513.8437730991784L2269.996541420619 505.15627309917846L2280.6423747539525 505.15627309917846L2280.6423747539525 529.9062730991784L2274.3507080872855 530.3437730991784Q2266.9965414206185 515.3437730991784 2250.934041420619 515.3437730991784L2250.934041420619 515.3437730991784Q2244.0382080872855 515.3437730991784 2238.496541420619 518.5729397658451Q2232.934041420619 521.8021064325117 2229.7882080872855 527.5104397658451Q2226.642374753952 533.1979397658451 2226.642374753952 540.5521064325118L2226.642374753952 540.5521064325118Q2226.642374753952 547.7604397658451 2230.017374753952 553.4479397658451Q2233.392374753952 559.1562730991784 2238.8715414206185 562.2187730991784Q2244.3507080872855 565.3021064325118 2250.6423747539525 565.3021064325118L2250.6423747539525 565.3021064325118Q2257.996541420619 565.4479397658451 2263.6215414206185 562.7604397658451Q2269.246541420619 560.0521064325118 2275.1007080872855 554.8021064325118L2275.1007080872855 554.8021064325118L2281.684041420619 564.4062730991784Q2267.8923747539525 577.7604397658451 2249.746541420619 577.9062730991784L2249.746541420619 577.9062730991784L2245.996541420619 587.0521064325117L2249.434041420619 586.9062730991784ZM2371.246541420619 563.3437730991784L2374.246541420619 574.0104397658451Q2369.2882080872855 577.0104397658451 2362.684041420619 577.0104397658451L2362.684041420619 577.0104397658451Q2357.1423747539525 577.0104397658451 2353.309041420619 573.7812730991784Q2349.496541420619 570.5521064325117 2347.9965414206185 564.5521064325118L2347.9965414206185 564.5521064325118Q2332.996541420619 577.9062730991784 2318.2882080872855 577.9062730991784L2318.2882080872855 577.9062730991784Q2307.934041420619 577.9062730991784 2300.746541420619 572.0521064325117Q2293.5382080872855 566.1979397658451 2293.5382080872855 555.6979397658451L2293.5382080872855 555.6979397658451Q2293.5382080872855 548.5104397658451 2297.6007080872855 543.1771064325118Q2301.642374753952 537.8437730991784 2308.4757080872855 535.0729397658451Q2315.2882080872855 532.3021064325118 2323.2465414206185 532.3021064325118L2323.2465414206185 532.3021064325118Q2329.9965414206185 532.3021064325118 2335.684041420619 533.5729397658451Q2341.392374753952 534.8437730991784 2347.392374753952 537.2604397658451L2347.392374753952 537.2604397658451L2347.392374753952 530.6562730991784Q2347.392374753952 523.0104397658451 2342.2882080872855 519.4062730991784Q2337.184041420619 515.8021064325118 2328.934041420619 515.8021064325118L2328.934041420619 515.8021064325118Q2317.2465414206185 515.8021064325118 2300.746541420619 522.2604397658451L2300.746541420619 522.2604397658451L2297.7465414206185 510.8437730991784Q2315.4340414206185 503.3437730991784 2330.746541420619 503.3437730991784L2330.746541420619 503.3437730991784Q2345.2882080872855 503.3437730991784 2353.309041420619 510.4687730991784Q2361.3507080872855 517.5937730991784 2361.3507080872855 531.2604397658451L2361.3507080872855 531.2604397658451L2361.3507080872855 557.1979397658451Q2361.3507080872855 564.5521064325118 2366.6007080872855 564.5521064325118L2366.6007080872855 564.5521064325118Q2368.8507080872855 564.5521064325118 2371.246541420619 563.3437730991784L2371.246541420619 563.3437730991784ZM2308.1007080872855 554.9479397658451Q2308.1007080872855 560.0521064325118 2312.1423747539525 562.8229397658451Q2316.184041420619 565.5937730991784 2322.0382080872855 565.5937730991784L2322.0382080872855 565.5937730991784Q2327.142374753952 565.5937730991784 2333.746541420619 562.9062730991784Q2340.3507080872855 560.1979397658451 2347.392374753952 554.9479397658451L2347.392374753952 554.9479397658451L2347.392374753952 547.0104397658451Q2337.184041420619 543.4062730991784 2325.7882080872855 543.0937730991784L2325.7882080872855 543.0937730991784Q2318.434041420619 543.0937730991784 2313.267374753952 546.1771064325118Q2308.1007080872855 549.2604397658451 2308.1007080872855 554.9479397658451L2308.1007080872855 554.9479397658451ZM2343.0382080872855 492.09377309917846Q2337.934041420619 492.09377309917846 2334.3507080872855 489.5521064325118Q2330.746541420619 487.0104397658451 2326.5382080872855 482.0521064325118L2326.5382080872855 482.0521064325118Q2322.7882080872855 477.5521064325118 2320.6215414206185 475.7604397658451Q2318.434041420619 473.9479397658451 2315.6007080872855 473.9479397658451L2315.6007080872855 473.9479397658451Q2308.246541420619 473.9479397658451 2307.0382080872855 489.84377309917846L2307.0382080872855 489.84377309917846L2298.3507080872855 488.9479397658451Q2298.642374753952 478.4479397658451 2303.059041420619 471.84377309917846Q2307.496541420619 465.2604397658451 2315.6007080872855 465.2604397658451L2315.6007080872855 465.2604397658451Q2320.996541420619 465.2604397658451 2324.6632080872855 467.7187730991784Q2328.3507080872855 470.1979397658451 2332.5382080872855 475.3021064325117L2332.5382080872855 475.3021064325117Q2335.9965414206185 479.65627309917846 2338.246541420619 481.4479397658451Q2340.496541420619 483.2604397658451 2343.0382080872855 483.2604397658451L2343.0382080872855 483.2604397658451Q2350.8507080872855 483.2604397658451 2351.746541420619 467.65627309917846L2351.746541420619 467.65627309917846L2360.6007080872855 468.40627309917846Q2360.2882080872855 478.7604397658451 2355.6423747539525 485.4271064325117Q2350.996541420619 492.09377309917846 2343.0382080872855 492.09377309917846L2343.0382080872855 492.09377309917846ZM2420.746541420619 577.9062730991784Q2410.392374753952 577.9062730991784 2401.392374753952 573.2604397658451Q2392.392374753952 568.5937730991784 2387.0590414206185 560.0521064325118Q2381.746541420619 551.5104397658451 2381.746541420619 540.5521064325118L2381.746541420619 540.5521064325118Q2381.746541420619 529.4479397658451 2387.0590414206185 520.9687730991784Q2392.392374753952 512.5104397658451 2401.392374753952 507.84377309917846Q2410.392374753952 503.1979397658451 2420.746541420619 503.1979397658451L2420.746541420619 503.1979397658451Q2430.934041420619 503.1979397658451 2439.871541420619 507.84377309917846Q2448.7882080872855 512.5104397658451 2454.184041420619 521.0521064325118Q2459.6007080872855 529.5937730991784 2459.6007080872855 540.5521064325118L2459.6007080872855 540.5521064325118Q2459.6007080872855 551.5104397658451 2454.3507080872855 560.0521064325118Q2449.1007080872855 568.5937730991784 2440.1632080872855 573.2604397658451Q2431.246541420619 577.9062730991784 2420.746541420619 577.9062730991784L2420.746541420619 577.9062730991784ZM2420.746541420619 566.0521064325118Q2427.496541420619 566.0521064325118 2432.892374753952 562.9062730991784Q2438.2882080872855 559.7604397658451 2441.371541420619 553.9687730991784Q2444.434041420619 548.1979397658451 2444.434041420619 540.5521064325118L2444.434041420619 540.5521064325118Q2444.434041420619 532.9062730991784 2441.371541420619 527.1354397658451Q2438.2882080872855 521.3437730991784 2432.892374753952 518.1979397658451Q2427.496541420619 515.0521064325118 2420.746541420619 515.0521064325118L2420.746541420619 515.0521064325118Q2410.392374753952 515.0521064325118 2403.7257080872855 522.0312730991784Q2397.0382080872855 529.0104397658451 2397.0382080872855 540.5521064325118L2397.0382080872855 540.5521064325118Q2397.0382080872855 552.0937730991784 2403.7257080872855 559.0729397658451Q2410.392374753952 566.0521064325118 2420.746541420619 566.0521064325118L2420.746541420619 566.0521064325118Z " fill="#161b21" transform="matrix(0.355748788085936,0,0,0.3557487880859361,0,107.80300178705255)"/></g></svg>